<?xml version="1.0" encoding="UTF-8" standalone="no"?>
<svg
   xmlns:dc="http://purl.org/dc/elements/1.1/"
   xmlns:cc="http://creativecommons.org/ns#"
   xmlns:rdf="http://www.w3.org/1999/02/22-rdf-syntax-ns#"
   xmlns:svg="http://www.w3.org/2000/svg"
   xmlns="http://www.w3.org/2000/svg"
   xmlns:sodipodi="http://sodipodi.sourceforge.net/DTD/sodipodi-0.dtd"
   xmlns:inkscape="http://www.inkscape.org/namespaces/inkscape"
   version="1.1"
   id="svg2"
   xml:space="preserve"
   width="755.90533"
   height="755.90533"
   viewBox="0 0 755.90533 755.90533"
   sodipodi:docname="Boosters_logo.ai"><metadata
     id="metadata8"><rdf:RDF><cc:Work
         rdf:about=""><dc:format>image/svg+xml</dc:format><dc:type
           rdf:resource="http://purl.org/dc/dcmitype/StillImage" /></cc:Work></rdf:RDF></metadata><defs
     id="defs6"><clipPath
       clipPathUnits="userSpaceOnUse"
       id="clipPath18"><path
         d="M 0,566.929 H 566.929 V 0 H 0 Z"
         id="path16" /></clipPath></defs><sodipodi:namedview
     pagecolor="#ffffff"
     bordercolor="#666666"
     borderopacity="1"
     objecttolerance="10"
     gridtolerance="10"
     guidetolerance="10"
     inkscape:pageopacity="0"
     inkscape:pageshadow="2"
     inkscape:window-width="640"
     inkscape:window-height="480"
     id="namedview4" /><g
     id="g10"
     inkscape:groupmode="layer"
     inkscape:label="Boosters_logo"
     transform="matrix(1.3333333,0,0,-1.3333333,0,755.90533)"><g
       id="g12"><g
         id="g14"
         clip-path="url(#clipPath18)"><g
           id="g20"
           transform="translate(405.9321,346.3195)"><path
             d="M 0,0 5.681,-7.786 4.727,1.867 12.573,7.677 2.934,6.582 -2.748,14.367 -1.794,4.714 -21.521,-3.16 c -0.842,1.571 -1.727,3.13 -2.656,4.675 -11.191,18.615 -27.071,32.674 -45.219,41.584 -10.116,5.065 -17.572,7.037 -21.869,7.976 -27,6.693 -56.551,3.103 -82.275,-12.362 -30.484,-18.328 -48.753,-49.231 -52.178,-82.081 l -31.791,-16.871 12.47,3.766 19.606,5.506 16.425,5.452 -1.201,9.625 5.879,-7.636 9.609,1.343 -7.694,-6.01 1.202,-9.625 -5.88,7.636 -19.039,-9.711 c 0,-0.003 0,-0.006 0.001,-0.009 l -0.05,-0.026 c 0.718,-14.838 4.503,-29.703 11.565,-43.662 -1.483,0.479 -3.231,0.773 -5.293,0.773 h -0.004 -0.037 l -13.841,-0.038 -3.988,-0.012 v -3.988 -2.358 c -0.001,-1.341 -0.002,-5.068 2.323,-7.335 l -0.013,-23.975 -0.012,-24.312 c -0.748,-0.802 -1.324,-1.786 -1.714,-2.936 -0.393,-1.144 -0.585,-2.516 -0.584,-4.184 v -2.72 -5.141 l -0.001,-1.244 c 0,0 62.677,16.31 118.407,16.31 57.355,0 114.654,-14.246 121.896,-16.108 v 28.72 l -0.039,0.052 c -0.092,2.643 -0.606,5.129 -1.578,7.382 -0.992,2.293 -2.237,4.416 -3.701,6.316 -1.426,1.841 -3.004,3.537 -4.695,5.05 -0.521,0.465 -1.008,0.902 -1.481,1.329 l -0.016,2.15 c 1.328,-0.098 10.828,-0.836 10.828,-0.836 v 4.307 l -10e-4,3.223 v 3.47 c 0,2.725 -0.372,5.194 -1.107,7.336 -0.782,2.278 -1.926,4.211 -3.403,5.744 -1.466,1.522 -3.213,2.687 -5.191,3.463 -1.893,0.739 -3.962,1.113 -6.153,1.113 -2.106,0 -4.104,-0.315 -5.941,-0.94 -0.005,0 -0.01,-0.003 -0.015,-0.005 1.744,3.542 3.309,7.158 4.661,10.842 l -0.033,-0.009 c 0.97,2.588 1.85,5.212 2.619,7.872 1.111,3.84 1.998,7.735 2.676,11.665 l -29.136,-9.25 c 0,0 16.16,9.327 30.229,17.507 0.316,3.364 0.49,6.744 0.49,10.13 -0.022,10.609 -1.737,21.29 -4.95,31.699 l -0.176,-0.048 c -0.015,0.05 -0.028,0.099 -0.044,0.149 l -3.32,-1.054 -52.611,-14.169 59.712,32.62 z"
             style="fill:#ff2e34;fill-opacity:1;fill-rule:nonzero;stroke:none"
             id="path22" /></g><g
           id="g24"
           transform="translate(338.8218,333.9436)"><path
             d="m 0,0 c -0.185,0.176 -1.949,4.024 -2.09,4.464 -0.536,1.675 -1.225,2.136 -1.886,3.489 -1.087,2.231 0.481,3.75 -0.124,5.86 -0.559,1.95 -3.623,4.773 -5.657,6.589 -0.331,0.296 -0.838,0.253 -1.115,-0.094 -0.173,-0.218 -0.386,-0.491 -0.612,-0.782 10e-4,0.001 10e-4,0.002 10e-4,0.002 l -6.099,3.186 -0.186,3.846 6.514,4.866 c -1.87,-0.891 -7.473,-3.363 -9.15,-4.032 -2.409,-0.964 -6.324,5.957 -6.324,5.957 l -0.98,1.738 c -13.177,-1.955 -9.885,-1.609 -22.024,-0.039 -8.915,1.827 -18.612,3.907 -29.328,5.942 -1.958,2.673 -4.671,5.866 -9.45,7.94 -4.779,2.074 -13.114,1.957 -14.816,1.071 0,0 5.109,-1.422 8.212,-4.068 1.017,-0.869 1.73,-1.745 2.229,-2.533 -9.515,1.785 -16.357,3.043 -16.357,3.043 l -40.722,-18.803 c 20.852,6.686 45.147,7.698 65.271,6.105 -1.131,-2.344 -1.792,-2.848 -3.653,-7.187 8.557,0.869 21.486,2.469 37.828,-5.601 -10.36,3.173 -30.27,4.036 -38.046,2.53 -9.987,-1.933 -29.202,-8.912 -36.238,-14.22 0.743,-1.124 9.827,-11.441 10.778,-12.37 l 11.113,-12.808 c 2.574,0.813 5.644,1.788 8.221,2.24 -0.874,-6.862 -5.618,-18.138 -8.703,-24.236 -1.869,-3.694 -6.13,-12.261 -8.31,-15.659 -2.446,-3.815 -7.442,-10.205 -7.442,-10.205 19.258,-1.257 44.742,5.097 60.642,19.985 0,0 -6.992,-11.786 -6.936,-11.856 10.498,6.065 32.036,9.161 43.964,3.952 1.681,11.763 0.016,18.739 11.241,30.585 1.466,1.548 3.643,3.704 5.51,5.356 -0.046,-0.011 -0.089,-0.021 -0.135,-0.031 0.032,0.007 0.061,0.014 0.093,0.021 0.028,0.007 0.051,0.014 0.078,0.023 1.394,0.508 5.706,1.702 6.632,2.59 0.013,0.012 0.024,0.022 0.037,0.032 l 1.294,0.931 c 0.587,0.579 1.213,1.097 1.666,1.787 C 7.393,-6.659 4.224,-4.03 0,0"
             style="fill:#000000;fill-opacity:1;fill-rule:evenodd;stroke:none"
             id="path26" /></g><g
           id="g28"
           transform="translate(246.2681,398.0207)"><path
             d="M 0,0 C 0,0 -5.439,2.107 -6.143,5.641 8.62,5.913 29.158,1.13 41.948,-6.077 c 3.109,-1.752 10.289,-5.934 11.657,-8.343 0,0 -6.433,2.617 -17.414,0.509 -5.539,-1.064 -6.764,-3.553 -13.282,-5.113 2.465,-1.908 15.551,-4.986 19.726,-5.549 7.851,-1.062 14.67,-0.919 21.902,1.437 -2.431,7.699 -11.538,13.864 -17.205,17.235 -5.32,3.164 -15.535,8.121 -22.371,9.499 l -1.4,0.407 C 16.26,6.293 2.562,8.109 -7.617,7.708 -9.854,7.619 -10.831,7.476 -14.011,6.945 -13.279,4.979 -6.197,0.667 0,0"
             style="fill:#000000;fill-opacity:1;fill-rule:evenodd;stroke:none"
             id="path30" /></g><g
           id="g32"
           transform="translate(336.3667,250.4172)"><path
             d="m 0,0 c 0,0 -0.229,0.048 0,0 -1.268,12.38 -8.679,21.51 -17.326,26.171 -4.421,2.383 -11.421,3.35 -13.247,3.461 -25.027,1.514 -47.52,-9.983 -63.429,-29.095 z"
             style="fill:#000000;fill-opacity:1;fill-rule:nonzero;stroke:none"
             id="path34" /></g><g
           id="g36"
           transform="translate(237.9731,161.0051)"><path
             d="m 0,0 v 8.774 h -6.064 v 1.729 H 8.291 V 8.774 H 2.219 L 2.219,0 Z"
             style="fill:#000000;fill-opacity:1;fill-rule:nonzero;stroke:none"
             id="path38" /></g><g
           id="g40"
           transform="translate(263.6294,161.0051)"><path
             d="M 0,0 V 10.503 H 12.604 V 8.862 H 2.161 V 6.196 h 9.463 V 4.562 H 2.161 V 1.633 H 12.722 V 0 Z"
             style="fill:#000000;fill-opacity:1;fill-rule:nonzero;stroke:none"
             id="path42" /></g><g
           id="g44"
           transform="translate(297.6362,165.0852)"><path
             d="M 0,0 H 6.057 L 3.018,4.577 Z M 8.773,-4.08 7.141,-1.619 H -1.084 L -2.703,-4.08 H -5.179 L 1.918,6.423 H 4.196 L 11.338,-4.08 Z"
             style="fill:#000000;fill-opacity:1;fill-rule:nonzero;stroke:none"
             id="path46" /></g><g
           id="g48"
           transform="translate(326.0249,161.0051)"><path
             d="m 0,0 v 10.503 h 2.3 l 6.387,-7.097 6.328,7.097 H 17.3 V 0 H 15.14 V 7.902 L 9.616,1.604 H 7.698 L 2.161,7.844 V 0 Z"
             style="fill:#000000;fill-opacity:1;fill-rule:nonzero;stroke:none"
             id="path50" /></g><g
           id="g52"
           transform="translate(190.7075,198.6574)"><path
             d="M 0,0 C 0.005,1.975 -0.318,3.512 -0.972,4.621 -1.625,5.729 -2.681,6.205 -4.134,6.031 -5.61,5.854 -7.086,5.674 -8.561,5.489 -9.195,5.409 -9.514,4.96 -9.516,4.145 -9.528,-2.677 -9.542,-9.497 -9.555,-16.317 c -0.002,-0.818 0.314,-1.159 0.947,-1.029 1.468,0.302 2.938,0.597 4.409,0.886 1.449,0.284 2.502,1.082 3.165,2.393 0.661,1.309 0.994,2.945 1.002,4.921 C -0.021,-6.098 -0.011,-3.049 0,0 m -9.497,13.797 c 0,-0.763 0.291,-1.111 0.884,-1.053 1.271,0.128 2.544,0.252 3.817,0.375 1.41,0.137 2.457,0.822 3.144,2.05 0.684,1.227 1.035,2.829 1.041,4.816 0.007,2.328 0.015,4.658 0.023,6.987 0.007,1.985 -0.329,3.561 -1.011,4.736 -0.679,1.173 -1.727,1.747 -3.141,1.709 -1.254,-0.035 -2.508,-0.07 -3.762,-0.106 -0.319,-0.009 -0.56,-0.147 -0.719,-0.415 -0.162,-0.268 -0.241,-0.578 -0.241,-0.929 z M 3.446,10.015 C 4.487,9.166 5.291,7.995 5.853,6.501 6.415,5.006 6.69,3.267 6.683,1.27 6.669,-1.753 6.655,-4.776 6.642,-7.799 6.624,-11.904 5.768,-15.324 4.08,-18.131 c -1.689,-2.805 -4.458,-4.633 -8.3,-5.482 -4.791,-1.058 -9.57,-2.192 -14.335,-3.4 v 2.72 c -0.001,1.209 0.123,2.175 0.371,2.897 0.246,0.72 0.597,1.282 1.047,1.685 0.227,0.171 0.428,0.44 0.609,0.812 0.18,0.368 0.272,0.823 0.271,1.363 0.009,16.453 0.017,32.905 0.026,49.358 -10e-4,0.838 -0.274,1.46 -0.82,1.865 -1.004,0.57 -1.505,2.162 -1.504,4.762 v 2.358 c 4.612,0.013 9.224,0.026 13.835,0.038 3.882,0.007 6.662,-1.224 8.343,-3.634 1.68,-2.416 2.51,-5.651 2.492,-9.763 C 6.104,25.003 6.094,22.557 6.083,20.111 6.075,18.387 5.829,16.843 5.346,15.466 4.861,14.09 4.186,12.886 3.316,11.851 3.087,11.548 2.973,11.229 2.972,10.892 c 0,-0.336 0.156,-0.63 0.474,-0.877"
             style="fill:#ffffff;fill-opacity:1;fill-rule:nonzero;stroke:none"
             id="path54" /></g><g
           id="g56"
           transform="translate(219.4868,228.1555)"><path
             d="M 0,0 C 0.005,1.043 -0.15,1.912 -0.464,2.609 -0.78,3.307 -1.189,3.873 -1.687,4.309 -2.188,4.742 -2.744,5.061 -3.359,5.26 -3.977,5.459 -4.6,5.555 -5.241,5.543 -5.879,5.532 -6.521,5.415 -7.161,5.19 -7.804,4.966 -8.374,4.621 -8.879,4.158 -9.386,3.692 -9.797,3.095 -10.122,2.362 c -0.323,-0.731 -0.487,-1.635 -0.493,-2.708 -0.068,-12.229 -0.134,-24.459 -0.201,-36.688 -0.004,-1.073 0.148,-1.949 0.462,-2.625 0.316,-0.677 0.723,-1.207 1.221,-1.585 0.499,-0.381 1.067,-0.63 1.704,-0.747 0.636,-0.12 1.274,-0.133 1.912,-0.041 0.639,0.092 1.267,0.286 1.884,0.583 0.618,0.296 1.177,0.7 1.683,1.213 0.503,0.51 0.919,1.14 1.243,1.885 0.323,0.746 0.49,1.638 0.494,2.682 C -0.142,-23.779 -0.071,-11.89 0,0 m -5.555,-48.612 c -1.686,-0.273 -3.258,-0.298 -4.711,-0.064 -1.455,0.235 -2.724,0.767 -3.811,1.609 -1.085,0.839 -1.933,1.987 -2.539,3.439 -0.605,1.452 -0.905,3.224 -0.894,5.303 0.063,12.687 0.125,25.376 0.188,38.063 0.01,2.078 0.328,3.908 0.951,5.474 0.624,1.567 1.487,2.856 2.589,3.868 1.1,1.011 2.382,1.756 3.847,2.241 1.463,0.486 3.041,0.724 4.731,0.724 1.688,0 3.264,-0.236 4.723,-0.704 1.46,-0.467 2.72,-1.177 3.79,-2.126 C 4.374,8.264 5.213,7.062 5.821,5.606 6.43,4.15 6.729,2.451 6.716,0.502 6.645,-11.404 6.573,-23.31 6.502,-35.215 c -0.013,-1.951 -0.331,-3.691 -0.958,-5.232 -0.626,-1.539 -1.48,-2.873 -2.558,-4 -1.08,-1.13 -2.352,-2.036 -3.815,-2.724 -1.464,-0.688 -3.038,-1.17 -4.726,-1.441"
             style="fill:#ffffff;fill-opacity:1;fill-rule:nonzero;stroke:none"
             id="path58" /></g><g
           id="g60"
           transform="translate(248.8911,228.8547)"><path
             d="M 0,0 C 0.005,0.982 -0.151,1.804 -0.468,2.463 -0.785,3.123 -1.193,3.658 -1.694,4.072 -2.195,4.483 -2.754,4.787 -3.369,4.978 -3.983,5.169 -4.613,5.262 -5.252,5.255 -5.894,5.248 -6.531,5.142 -7.173,4.936 -7.813,4.729 -8.387,4.411 -8.892,3.981 -9.396,3.55 -9.813,2.995 -10.135,2.313 c -0.323,-0.679 -0.489,-1.521 -0.494,-2.522 -0.064,-11.408 -0.129,-22.817 -0.193,-34.227 -0.007,-1.001 0.151,-1.825 0.467,-2.47 0.317,-0.646 0.725,-1.159 1.228,-1.535 0.501,-0.379 1.072,-0.639 1.714,-0.78 0.642,-0.141 1.281,-0.184 1.924,-0.129 0.639,0.056 1.272,0.207 1.892,0.457 0.621,0.247 1.183,0.601 1.691,1.06 0.508,0.456 0.924,1.03 1.247,1.717 0.323,0.686 0.488,1.52 0.493,2.504 C -0.11,-22.408 -0.056,-11.204 0,0 m -5.522,-45.52 c -1.699,-0.164 -3.279,-0.103 -4.743,0.192 -1.464,0.295 -2.743,0.855 -3.837,1.691 -1.092,0.836 -1.944,1.942 -2.554,3.318 -0.612,1.376 -0.908,3.03 -0.898,4.959 0.07,11.766 0.14,23.532 0.209,35.298 0.011,1.927 0.33,3.621 0.955,5.072 0.626,1.451 1.49,2.644 2.591,3.583 1.103,0.938 2.382,1.631 3.849,2.083 1.463,0.452 3.041,0.675 4.73,0.675 1.689,0 3.263,-0.222 4.724,-0.663 C 0.963,10.246 2.228,9.575 3.297,8.675 4.366,7.772 5.207,6.632 5.817,5.248 6.429,3.863 6.73,2.249 6.723,0.399 6.675,-10.896 6.626,-22.19 6.577,-33.484 6.57,-35.335 6.253,-36.972 5.626,-38.401 5,-39.829 4.146,-41.048 3.063,-42.057 c -1.084,-1.009 -2.361,-1.796 -3.834,-2.364 -1.472,-0.568 -3.055,-0.934 -4.751,-1.099"
             style="fill:#ffffff;fill-opacity:1;fill-rule:nonzero;stroke:none"
             id="path62" /></g><g
           id="g64"
           transform="translate(268.4243,223.632)"><path
             d="m 0,0 c -0.003,-0.962 0.43,-1.868 1.298,-2.72 0.866,-0.851 1.94,-1.712 3.223,-2.581 1.279,-0.87 2.687,-1.785 4.22,-2.748 1.533,-0.963 2.943,-2.037 4.226,-3.219 1.281,-1.183 2.359,-2.513 3.23,-3.987 0.87,-1.474 1.307,-3.167 1.307,-5.073 l -0.003,-7.008 c -0.002,-1.813 -0.346,-3.399 -1.037,-4.763 -0.69,-1.363 -1.611,-2.492 -2.763,-3.389 -1.151,-0.898 -2.487,-1.575 -4.006,-2.037 -1.519,-0.462 -3.131,-0.72 -4.833,-0.775 -1.704,-0.054 -3.313,0.1 -4.83,0.468 -1.515,0.369 -2.837,0.968 -3.961,1.806 -1.124,0.836 -2.015,1.925 -2.675,3.268 -0.662,1.344 -0.991,2.937 -0.983,4.776 0.007,1.814 0.014,3.628 0.021,5.442 1.101,0.046 2.203,0.089 3.304,0.13 1.241,0.045 2.167,-0.226 2.786,-0.806 0.618,-0.582 0.925,-1.425 0.922,-2.529 -0.003,-1.033 -0.006,-2.067 -0.008,-3.101 -0.002,-0.625 0.168,-1.172 0.512,-1.638 0.343,-0.469 0.779,-0.862 1.307,-1.179 0.524,-0.317 1.112,-0.562 1.756,-0.733 0.641,-0.17 1.264,-0.247 1.861,-0.229 0.597,0.017 1.22,0.142 1.863,0.372 0.644,0.232 1.245,0.532 1.795,0.902 0.55,0.372 1.003,0.81 1.347,1.318 0.346,0.508 0.518,1.071 0.519,1.693 0.004,2.531 0.007,5.062 0.01,7.593 0.003,1.576 -0.422,2.92 -1.267,4.03 -0.848,1.111 -1.913,2.112 -3.195,3 -1.283,0.887 -2.669,1.76 -4.155,2.619 -1.485,0.859 -2.872,1.802 -4.15,2.833 -1.281,1.032 -2.342,2.249 -3.183,3.657 -0.843,1.405 -1.26,3.127 -1.252,5.157 0.006,1.717 0.013,3.432 0.019,5.149 0.007,1.933 0.311,3.593 0.909,4.973 0.598,1.38 1.425,2.517 2.478,3.411 1.054,0.894 2.289,1.544 3.707,1.953 1.416,0.408 2.969,0.613 4.66,0.613 1.689,0 3.253,-0.228 4.692,-0.681 1.437,-0.454 2.692,-1.121 3.766,-2.003 1.073,-0.882 1.906,-2.001 2.5,-3.36 C 16.528,9.245 16.826,7.66 16.826,5.848 16.825,4.084 16.824,2.319 16.823,0.556 15.794,0.554 14.763,0.551 13.733,0.546 12.59,0.542 11.628,0.917 10.851,1.678 10.073,2.438 9.686,3.392 9.688,4.538 9.689,5.422 9.69,6.306 9.691,7.189 9.693,7.763 9.532,8.264 9.214,8.692 8.895,9.122 8.494,9.466 8.017,9.728 7.534,9.988 7.01,10.179 6.439,10.297 5.869,10.413 5.353,10.473 4.897,10.471 4.394,10.469 3.867,10.395 3.319,10.249 2.771,10.104 2.245,9.884 1.741,9.595 1.238,9.304 0.823,8.952 0.504,8.544 0.183,8.133 0.021,7.663 0.021,7.135 0.014,4.757 0.006,2.379 0,0"
             style="fill:#ffffff;fill-opacity:1;fill-rule:nonzero;stroke:none"
             id="path66" /></g><g
           id="g68"
           transform="translate(317.3208,239.008)"><path
             d="M 0,0 C 0.413,-0.51 0.622,-1.372 0.627,-2.584 L 0.636,-4.84 c 0.005,-1.333 0.01,-2.667 0.015,-4.001 -1.234,0.015 -2.469,0.028 -3.704,0.041 -0.64,0.006 -1.143,0.239 -1.51,0.701 -0.371,0.462 -0.552,1.078 -0.555,1.85 -10e-4,0.626 -0.256,0.941 -0.758,0.944 -1.12,0.007 -2.239,0.014 -3.359,0.019 -0.274,0.002 -0.516,-0.094 -0.72,-0.284 -0.204,-0.192 -0.307,-0.503 -0.306,-0.935 0.035,-13.274 0.071,-26.548 0.105,-39.821 0.001,-0.482 0.073,-0.82 0.21,-1.017 0.139,-0.197 0.321,-0.395 0.553,-0.596 0.368,-0.301 0.726,-0.724 1.072,-1.267 0.346,-0.544 0.521,-1.225 0.523,-2.042 l 0.006,-2.092 c -3.817,0.172 -7.637,0.297 -11.457,0.376 l -0.003,2.077 c -0.001,0.813 0.183,1.477 0.549,1.996 0.367,0.518 0.735,0.917 1.102,1.196 0.182,0.186 0.345,0.374 0.483,0.562 0.137,0.188 0.206,0.521 0.205,1 -0.024,13.292 -0.047,26.583 -0.069,39.875 0,0.333 -0.116,0.585 -0.344,0.754 -0.231,0.168 -0.457,0.252 -0.687,0.253 -1.006,0.003 -2.011,0.006 -3.017,0.008 -0.183,0 -0.401,-0.071 -0.651,-0.215 -0.252,-0.142 -0.378,-0.405 -0.376,-0.785 0,-0.813 -0.204,-1.42 -0.616,-1.824 -0.412,-0.406 -1.166,-0.606 -2.263,-0.604 -1.051,0.002 -2.104,0.003 -3.156,0.003 0,1.454 0,2.908 -0.001,4.362 v 2.074 c 0.001,1.095 0.282,1.871 0.857,2.324 0.569,0.453 1.449,0.679 2.637,0.679 7.446,0 14.89,-0.002 22.335,-0.006 C -1.169,0.765 -0.414,0.51 0,0"
             style="fill:#ffffff;fill-opacity:1;fill-rule:nonzero;stroke:none"
             id="path70" /></g><g
           id="g72"
           transform="translate(330.9517,233.1301)"><path
             d="m 0,0 c -0.204,-0.219 -0.307,-0.478 -0.305,-0.774 0.027,-5.159 0.053,-10.318 0.079,-15.476 0.004,-0.693 0.348,-1.051 1.036,-1.078 2.722,-0.11 5.445,-0.232 8.166,-0.362 0.228,-0.011 0.47,-0.113 0.722,-0.3 0.252,-0.189 0.381,-0.484 0.382,-0.886 0.009,-1.408 0.017,-2.816 0.024,-4.225 0.005,-0.705 -0.336,-1.034 -1.023,-0.992 -2.745,0.166 -5.491,0.32 -8.238,0.459 -0.687,0.035 -1.029,-0.294 -1.025,-0.984 0.03,-5.752 0.059,-11.504 0.089,-17.255 0.004,-0.691 0.281,-1.059 0.831,-1.105 2.293,-0.189 4.585,-0.393 6.875,-0.612 0.504,-0.048 0.754,0.253 0.75,0.904 -0.004,0.802 0.301,1.4 0.918,1.794 0.616,0.394 1.45,0.542 2.502,0.441 0.87,-0.083 1.739,-0.17 2.61,-0.258 0.014,-2.611 0.03,-5.224 0.045,-7.836 0.004,-0.559 -0.167,-0.995 -0.506,-1.308 -0.342,-0.314 -0.764,-0.44 -1.268,-0.38 -1.419,0.167 -2.84,0.328 -4.261,0.482 -4.467,0.486 -8.94,0.907 -13.418,1.266 -1.378,0.109 -2.756,0.214 -4.133,0.311 -0.002,0.634 -0.006,1.267 -0.008,1.901 -0.006,1.071 0.117,1.878 0.368,2.422 0.248,0.543 0.605,0.923 1.061,1.137 0.595,0.301 0.891,0.794 0.888,1.48 -0.061,13.512 -0.123,27.026 -0.185,40.54 -0.002,0.439 -0.095,0.782 -0.28,1.029 C -7.487,0.58 -7.692,0.777 -7.923,0.927 -8.38,1.174 -8.737,1.566 -8.989,2.104 -9.245,2.643 -9.371,3.398 -9.377,4.373 -9.38,5.079 -9.383,5.786 -9.386,6.492 -2.146,6.486 5.093,6.478 12.332,6.468 12.878,6.467 13.314,6.289 13.637,5.934 13.958,5.577 14.12,5.197 14.123,4.791 c 0.016,-2.687 0.032,-5.376 0.048,-8.064 -0.846,0.018 -1.692,0.037 -2.536,0.054 -0.958,0.021 -1.772,0.175 -2.436,0.465 C 8.533,-2.467 8.2,-1.897 8.195,-1.044 8.193,-0.743 8.124,-0.455 7.984,-0.177 7.846,0.1 7.593,0.242 7.229,0.247 5.036,0.275 2.842,0.302 0.648,0.327 0.419,0.329 0.203,0.22 0,0"
             style="fill:#ffffff;fill-opacity:1;fill-rule:nonzero;stroke:none"
             id="path74" /></g><g
           id="g76"
           transform="translate(367.1265,226.7063)"><path
             d="m 0,0 c -0.012,1.875 -0.351,3.371 -1.018,4.482 -0.669,1.111 -1.734,1.679 -3.194,1.707 -1.347,0.027 -2.693,0.053 -4.041,0.078 -0.73,0.013 -1.092,-0.346 -1.089,-1.078 0.037,-6.216 0.073,-12.432 0.111,-18.649 0.002,-0.261 0.092,-0.477 0.277,-0.645 0.185,-0.169 0.366,-0.261 0.55,-0.274 1.437,-0.102 2.875,-0.208 4.312,-0.316 1.458,-0.111 2.52,0.364 3.173,1.437 0.655,1.071 0.978,2.548 0.967,4.423 C 0.032,-5.89 0.016,-2.945 0,0 m 7.803,-42.254 c 0.364,-0.336 0.718,-0.736 1.062,-1.208 0.342,-0.471 0.516,-1.202 0.521,-2.191 0.005,-1.074 0.01,-2.146 0.015,-3.218 -1.884,0.358 -3.77,0.705 -5.659,1.04 -1.182,0.211 -2.061,0.726 -2.635,1.546 -0.573,0.82 -0.863,1.816 -0.869,2.994 -0.029,5.247 -0.057,10.495 -0.087,15.742 -0.009,1.875 -0.347,3.37 -1.015,4.479 -0.667,1.108 -1.731,1.728 -3.191,1.863 -1.414,0.132 -2.828,0.259 -4.243,0.383 -0.596,0.052 -0.89,-0.288 -0.884,-1.02 0.033,-5.459 0.065,-10.917 0.097,-16.376 0.003,-0.523 0.075,-0.897 0.212,-1.125 0.139,-0.227 0.299,-0.458 0.482,-0.692 0.367,-0.362 0.736,-0.859 1.104,-1.487 0.369,-0.631 0.556,-1.393 0.56,-2.287 0.005,-0.761 0.009,-1.523 0.014,-2.285 -3.786,0.585 -7.578,1.123 -11.375,1.616 -0.004,0.741 -0.008,1.482 -0.013,2.223 -0.005,0.869 0.174,1.562 0.536,2.082 0.363,0.519 0.725,0.911 1.09,1.174 0.182,0.184 0.34,0.369 0.476,0.559 0.137,0.188 0.2,0.54 0.199,1.055 -0.086,14.288 -0.172,28.577 -0.258,42.866 -0.002,0.41 -0.072,0.733 -0.211,0.967 -0.139,0.233 -0.3,0.402 -0.482,0.508 -0.368,0.262 -0.724,0.677 -1.069,1.244 -0.346,0.568 -0.523,1.388 -0.53,2.461 -0.004,0.741 -0.007,1.483 -0.012,2.225 4.704,-0.008 9.408,-0.016 14.112,-0.025 1.962,-0.004 3.633,-0.338 5.006,-1.016 C 2.129,11.165 3.266,10.225 4.162,9.021 5.058,7.817 5.716,6.376 6.135,4.704 6.554,3.03 6.768,1.18 6.778,-0.841 6.793,-3.652 6.807,-6.465 6.82,-9.276 6.829,-11.024 6.541,-12.601 5.956,-13.994 5.37,-15.39 4.603,-16.503 3.649,-17.337 c -0.408,-0.451 -0.359,-0.994 0.147,-1.636 1.052,-1.019 1.834,-2.374 2.343,-4.062 0.508,-1.689 0.768,-3.55 0.778,-5.569 0.02,-4.013 0.04,-8.027 0.06,-12.04 0.003,-0.546 0.084,-0.9 0.244,-1.063 0.159,-0.163 0.353,-0.345 0.582,-0.547"
             style="fill:#ffffff;fill-opacity:1;fill-rule:nonzero;stroke:none"
             id="path78" /></g><g
           id="g80"
           transform="translate(387.0513,220.5676)"><path
             d="m 0,0 c 0.004,-1.139 0.441,-2.247 1.309,-3.343 0.868,-1.094 1.939,-2.229 3.215,-3.412 1.277,-1.183 2.676,-2.452 4.201,-3.813 1.523,-1.363 2.92,-2.866 4.192,-4.509 1.269,-1.646 2.335,-3.468 3.197,-5.458 0.859,-1.991 1.29,-4.211 1.29,-6.628 v -8.885 c -0.001,-2.298 -0.339,-4.237 -1.014,-5.801 -0.674,-1.562 -1.575,-2.762 -2.7,-3.6 -1.125,-0.839 -2.431,-1.339 -3.919,-1.518 -1.485,-0.179 -3.068,-0.069 -4.736,0.312 -1.671,0.38 -3.254,0.99 -4.749,1.822 -1.496,0.832 -2.801,1.877 -3.915,3.137 -1.113,1.259 -2.005,2.74 -2.668,4.445 -0.666,1.707 -1.004,3.607 -1.013,5.719 -0.008,2.083 -0.018,4.166 -0.027,6.249 1.091,-0.154 2.182,-0.31 3.273,-0.469 1.225,-0.178 2.146,-0.668 2.761,-1.47 0.616,-0.801 0.926,-1.86 0.929,-3.166 0.005,-1.221 0.009,-2.442 0.013,-3.664 0.002,-0.738 0.174,-1.423 0.516,-2.053 0.343,-0.632 0.775,-1.199 1.296,-1.698 0.522,-0.501 1.1,-0.928 1.735,-1.285 0.634,-0.355 1.244,-0.594 1.833,-0.714 0.585,-0.12 1.195,-0.115 1.829,0.016 0.632,0.132 1.217,0.359 1.76,0.687 0.541,0.328 0.98,0.766 1.319,1.315 0.339,0.549 0.506,1.207 0.505,1.974 l -0.015,9.373 c -0.004,1.944 -0.424,3.676 -1.265,5.175 -0.841,1.499 -1.898,2.885 -3.172,4.149 -1.273,1.261 -2.648,2.506 -4.128,3.729 -1.479,1.222 -2.863,2.514 -4.139,3.876 -1.279,1.363 -2.343,2.9 -3.192,4.614 -0.85,1.714 -1.281,3.731 -1.29,6.069 -0.008,1.976 -0.016,3.952 -0.025,5.929 -0.01,2.225 0.278,4.122 0.865,5.7 0.587,1.578 1.403,2.881 2.45,3.912 1.043,1.031 2.274,1.789 3.69,2.27 1.415,0.48 2.966,0.727 4.656,0.727 1.689,0 3.254,-0.276 4.694,-0.838 1.438,-0.563 2.695,-1.398 3.768,-2.513 1.074,-1.115 1.907,-2.538 2.501,-4.267 0.594,-1.729 0.891,-3.748 0.891,-6.039 0,-2.231 0.001,-4.461 0.001,-6.693 -1.024,0.076 -2.046,0.151 -3.07,0.225 -1.136,0.082 -2.09,0.624 -2.867,1.62 C 10.01,2.202 9.62,3.4 9.618,4.811 9.616,5.898 9.614,6.985 9.612,8.073 9.612,8.778 9.45,9.402 9.131,9.941 8.81,10.48 8.411,10.916 7.933,11.253 7.453,11.587 6.926,11.835 6.356,11.996 5.786,12.155 5.272,12.242 4.817,12.254 4.314,12.267 3.79,12.191 3.244,12.034 2.696,11.876 2.174,11.631 1.673,11.302 1.172,10.973 0.763,10.569 0.445,10.098 0.127,9.622 -0.03,9.073 -0.028,8.448 -0.019,5.632 -0.009,2.815 0,0"
             style="fill:#ffffff;fill-opacity:1;fill-rule:nonzero;stroke:none"
             id="path82" /></g><g
           id="g84"
           transform="translate(260.8071,381.8176)"><path
             d="m 0,0 c 8.264,-4.473 20.633,-8.567 25.221,-9.876 10.739,-3.064 20.01,-2.62 30.117,1.004 0,0 -2.525,4.758 -3.788,6.32 -1.563,1.936 -2.796,3.223 -4.407,4.954 C 43.956,5.824 41.542,7.776 36.457,10.471 -4.382,29.291 -28.55,23.148 -28.55,23.148 -28.374,22.963 -8.035,28.97 32.044,10.063 38.007,7.25 47.196,-0.486 48.895,-6.431 41.661,-8.786 35.68,-8.729 27.827,-7.669 23.652,-7.104 8.946,-3.429 0,0"
             style="fill:#fdfdfd;fill-opacity:1;fill-rule:evenodd;stroke:none"
             id="path86" /></g><g
           id="g88"
           transform="translate(312.4038,369.341)"><path
             d="m 0,0 -1.29,-0.309 c 0,0 1.163,-1.089 -0.02,-6.179 -1.586,-6.825 -11.016,-10.471 -11.016,-10.471 7.072,2.943 19.537,6.847 27.49,12.987 L 6.047,1.541 C 3.741,1.234 2.344,0.692 0,0"
             style="fill:#fdfdfd;fill-opacity:1;fill-rule:evenodd;stroke:none"
             id="path90" /></g><g
           id="g92"
           transform="translate(243.8521,318.7473)"><path
             d="M 0,0 C 0.239,1.051 0.279,1.527 0.279,1.527 0.279,1.527 0.184,0.955 0,0"
             style="fill:#fdfdfd;fill-opacity:1;fill-rule:nonzero;stroke:none"
             id="path94" /></g><g
           id="g96"
           transform="translate(222.6021,271.3596)"><path
             d="M 0,0 C -0.122,0.013 3.572,5.776 8.419,14.818 31.269,18.369 48.274,34.643 52.24,41.317 43.033,30.647 25.435,18.242 9.027,15.959 c 2.419,4.561 5.087,9.88 7.694,15.676 0.625,1.389 1.193,2.931 1.705,4.505 9.053,4.627 14.455,10.308 18.079,13.539 -6.083,-4.842 -11.648,-9.045 -17.692,-12.304 1.203,3.956 2.035,7.917 2.437,10.013 C 20.562,44.367 18.209,36.567 10.303,21.424 0.674,2.982 -4.757,-1.605 -4.757,-1.605 35.107,-5.219 64.941,18.595 67.872,33.808 62.391,16.92 28.775,-2.873 0,0"
             style="fill:#fdfdfd;fill-opacity:1;fill-rule:nonzero;stroke:none"
             id="path98" /></g><g
           id="g100"
           transform="translate(188.8579,361.5852)"><path
             d="M 0,0 C 0,0 40.752,17.446 96.679,0.925 96.679,0.925 49.02,13.994 0,0"
             style="fill:#fdfdfd;fill-opacity:1;fill-rule:evenodd;stroke:none"
             id="path102" /></g><g
           id="g104"
           transform="translate(346.1753,327.7893)"><path
             d="m 0,0 c -0.196,1.414 -1.62,2.79 -2.424,3.924 -1.042,1.471 -1.134,2.647 -2.693,3.054 -0.333,0.085 -0.545,0.401 -0.562,0.744 -0.107,2.271 -1.182,3.635 -2.19,5.139 -3.924,5.858 1.464,5.91 -4.891,10.834 -1.455,1.127 -3.168,2.705 -4.944,3.39 -0.039,-0.022 -0.349,-0.402 -0.78,-0.952 l -0.011,-0.013 c -1.052,-1.339 -2.837,-3.687 -3.382,-4.501 -10.283,-13.45 -15.462,-4.671 -24.986,-8.693 -11.823,-4.993 -2.383,-14.363 4.831,-17.918 -16.384,10.428 -6.538,18.837 2.585,17.232 13.403,-2.356 20.823,6.356 23.474,10.374 1.793,-0.09 4.057,-1.804 4.227,-3.047 0.604,-2.109 -0.671,-3.229 0.417,-5.46 0.658,-1.349 1.347,-1.811 1.882,-3.476 0.147,-0.459 -0.159,-0.938 -0.634,-1.021 -2.731,-0.481 -7.866,-2.525 -13.571,0.832 -0.619,0.365 -1.742,-0.073 -1.722,-0.835 0.038,-1.453 0.803,-2.698 1.505,-3.711 4.177,-6.232 11.79,-0.601 15.805,0.449 0.257,0.067 0.533,-0.022 0.725,-0.205 4.201,-4.018 6.443,-6.924 3.763,-10.62 -1.635,-2.254 -5.534,-4.001 -8.285,-5.011 -0.617,-0.171 -1.479,-0.462 -1.841,-0.547 -0.02,-0.004 -0.038,-0.017 -0.058,-0.022 -0.642,-0.189 -3.115,-0.886 -5.814,-1.246 -3.473,-0.461 -8.426,-0.403 -8.426,-0.403 0,0 5.938,-0.947 12.612,0.521 -0.672,-0.674 -1.351,-1.513 -2.059,-2.205 -9.334,-9.124 -10.157,-18.89 -10.86,-25.643 -0.23,-2.218 -0.521,-6.498 -0.521,-6.498 0,0 0.11,0.152 0.175,0.628 0.858,6.321 1.12,12.935 3.929,18.757 2.483,5.142 4.889,8.385 7.528,11.321 1.68,1.869 3.81,3.804 4.914,4.777 C -6.448,-8.681 0.381,-4.335 0,0"
             style="fill:#fdfdfd;fill-opacity:1;fill-rule:evenodd;stroke:none"
             id="path106" /></g><g
           id="g108"
           transform="translate(288.3042,354.9026)"><path
             d="m 0,0 c -39.815,14.38 -74.284,-11.69 -74.284,-11.69 0,0 0.122,-0.286 1.892,-2.34 4.038,-4.96 13.65,-16.596 19.913,-22.739 -9.583,10.783 -14.562,19.097 -16.696,23.134 C -57.958,-1.612 -27.506,7.345 0,0"
             style="fill:#fdfdfd;fill-opacity:1;fill-rule:nonzero;stroke:none"
             id="path110" /></g><g
           id="g112"
           transform="translate(337.3618,250.4172)"><path
             d="m 0,0 c -0.435,3.731 -1.451,7.495 -3.005,10.908 -1.607,3.385 -3.703,6.549 -6.31,9.229 -2.577,2.709 -5.602,4.963 -8.912,6.687 -1.696,0.855 -3.471,1.438 -5.262,1.91 -1.792,0.474 -3.606,0.824 -5.433,1.086 -0.915,0.126 -1.829,0.245 -2.77,0.287 l -2.756,0.078 c -1.839,0.006 -3.676,-0.039 -5.509,-0.161 -3.665,-0.247 -7.308,-0.776 -10.885,-1.582 -7.157,-1.607 -14.041,-4.326 -20.386,-7.95 6.427,3.479 13.349,6.028 20.49,7.46 3.57,0.718 7.191,1.16 10.823,1.321 1.815,0.079 3.633,0.083 5.448,0.035 l 2.72,-0.139 c 0.884,-0.059 1.782,-0.195 2.673,-0.339 1.783,-0.299 3.555,-0.683 5.285,-1.184 1.729,-0.497 3.43,-1.104 4.982,-1.932 3.131,-1.724 5.994,-3.96 8.394,-6.605 2.434,-2.617 4.356,-5.678 5.808,-8.921 1.15,-2.685 1.917,-5.447 2.351,-8.303 -1.755,-0.25 -5.848,-0.454 -11.394,-0.62 -0.381,1.285 -0.842,2.545 -1.397,3.763 -1.323,2.787 -3.049,5.393 -5.196,7.6 -2.122,2.23 -4.613,4.088 -7.339,5.508 -2.807,1.378 -5.81,2.005 -8.808,2.467 -0.754,0.104 -1.507,0.202 -2.281,0.236 l -2.27,0.063 c -1.514,0.006 -3.027,-0.032 -4.537,-0.131 -3.018,-0.204 -6.018,-0.64 -8.963,-1.303 -5.895,-1.323 -11.563,-3.563 -16.789,-6.547 5.293,2.864 10.994,4.964 16.874,6.143 2.94,0.591 5.922,0.956 8.913,1.088 1.495,0.065 2.992,0.069 4.487,0.028 l 2.24,-0.114 c 0.728,-0.047 1.467,-0.161 2.2,-0.279 2.92,-0.515 5.877,-1.22 8.456,-2.566 2.579,-1.42 4.936,-3.261 6.912,-5.439 2.005,-2.155 3.588,-4.677 4.784,-7.346 0.448,-1.046 0.803,-2.125 1.118,-3.217 C -41.35,0.504 -94.997,0.537 -94.997,0.537 Z"
             style="fill:#ffffff;fill-opacity:1;fill-rule:evenodd;stroke:none"
             id="path114" /></g></g></g></g></svg>
